<?xml version="1.0" encoding="UTF-8" standalone="no"?>
<svg width="356px" height="351px" viewBox="0 0 356 351" version="1.1" xmlns="http://www.w3.org/2000/svg" xmlns:xlink="http://www.w3.org/1999/xlink">
    <!-- Generator: Sketch 44.1 (41455) - http://www.bohemiancoding.com/sketch -->
    <title>calculator</title>
    <desc>Created with Sketch.</desc>
    <defs>
        <rect id="path-1" x="0" y="0" width="356" height="351" rx="8"></rect>
        <rect id="path-2" x="28" y="227" width="140" height="79" rx="8"></rect>
        <rect id="path-3" x="88.5771645" y="236.577164" width="18" height="60" rx="8"></rect>
        <rect id="path-4" x="88.5771645" y="236.577164" width="18" height="60" rx="8"></rect>
        <rect id="path-5" x="188" y="116" width="140" height="79" rx="8"></rect>
        <rect id="path-6" x="31" y="35" width="297" height="49" rx="8"></rect>
        <rect id="path-7" x="28" y="116" width="140" height="79" rx="8"></rect>
        <rect id="path-8" x="90.5" y="124.5" width="16" height="63" rx="8"></rect>
        <rect id="path-9" x="188" y="227" width="140" height="79" rx="8"></rect>
        <rect id="path-10" x="251" y="250" width="18" height="60" rx="8"></rect>
        <rect id="path-11" x="250" y="224" width="18" height="60" rx="8"></rect>
        <rect id="path-12" x="90" y="131" width="16" height="49" rx="8"></rect>
        <rect id="path-13" x="249" y="126" width="18" height="60" rx="8"></rect>
    </defs>
    <g id="Page-1" stroke="none" stroke-width="1" fill="none" fill-rule="evenodd">
        <g id="calculator">
            <g id="Rectangle-3">
                <use fill-opacity="0" fill="#D8D8D8" fill-rule="evenodd" xlink:href="#path-1"></use>
                <rect stroke="#000000" stroke-width="10" x="5" y="5" width="346" height="341" rx="8"></rect>
            </g>
            <g id="Rectangle-5">
                <use fill-opacity="0" fill="#D8D8D8" fill-rule="evenodd" xlink:href="#path-2"></use>
                <rect stroke="#000000" stroke-width="10" x="33" y="232" width="130" height="69" rx="8"></rect>
            </g>
            <g id="Rectangle-8" transform="translate(97.577164, 266.577164) rotate(45.000000) translate(-97.577164, -266.577164) ">
                <use fill="#000000" fill-rule="evenodd" xlink:href="#path-3"></use>
                <rect stroke="#000000" stroke-width="1" x="89.0771645" y="237.077164" width="17" height="59" rx="8"></rect>
            </g>
            <g id="Rectangle-8" transform="translate(97.577164, 266.577164) rotate(-45.000000) translate(-97.577164, -266.577164) ">
                <use fill="#000000" fill-rule="evenodd" xlink:href="#path-4"></use>
                <rect stroke="#000000" stroke-width="1" x="89.0771645" y="237.077164" width="17" height="59" rx="8"></rect>
            </g>
            <g id="Rectangle-5">
                <use fill-opacity="0" fill="#D8D8D8" fill-rule="evenodd" xlink:href="#path-5"></use>
                <rect stroke="#000000" stroke-width="10" x="193" y="121" width="130" height="69" rx="8"></rect>
            </g>
            <g id="Rectangle-4">
                <use fill-opacity="0" fill="#D8D8D8" fill-rule="evenodd" xlink:href="#path-6"></use>
                <rect stroke="#000000" stroke-width="10" x="36" y="40" width="287" height="39" rx="8"></rect>
            </g>
            <g id="Rectangle-5">
                <use fill-opacity="0" fill="#D8D8D8" fill-rule="evenodd" xlink:href="#path-7"></use>
                <rect stroke="#000000" stroke-width="10" x="33" y="121" width="130" height="69" rx="8"></rect>
            </g>
            <g id="Rectangle-7" transform="translate(98.500000, 156.000000) rotate(90.000000) translate(-98.500000, -156.000000) ">
                <use fill="#000000" fill-rule="evenodd" xlink:href="#path-8"></use>
                <rect stroke="#000000" stroke-width="1" x="91" y="125" width="15" height="62" rx="7.5"></rect>
            </g>
            <g id="Rectangle-5">
                <use fill-opacity="0" fill="#D8D8D8" fill-rule="evenodd" xlink:href="#path-9"></use>
                <rect stroke="#000000" stroke-width="10" x="193" y="232" width="130" height="69" rx="8"></rect>
            </g>
            <g id="Rectangle-8" transform="translate(260.000000, 280.000000) rotate(90.000000) translate(-260.000000, -280.000000) ">
                <use fill="#000000" fill-rule="evenodd" xlink:href="#path-10"></use>
                <rect stroke="#000000" stroke-width="1" x="251.5" y="250.5" width="17" height="59" rx="8"></rect>
            </g>
            <g id="Rectangle-8" transform="translate(259.000000, 254.000000) rotate(90.000000) translate(-259.000000, -254.000000) ">
                <use fill="#000000" fill-rule="evenodd" xlink:href="#path-11"></use>
                <rect stroke="#000000" stroke-width="1" x="250.5" y="224.5" width="17" height="59" rx="8"></rect>
            </g>
            <g id="Rectangle-7">
                <use fill="#000000" fill-rule="evenodd" xlink:href="#path-12"></use>
                <rect stroke="#000000" stroke-width="1" x="90.5" y="131.5" width="15" height="48" rx="7.5"></rect>
            </g>
            <g id="Rectangle-8" transform="translate(258.000000, 156.000000) rotate(-45.000000) translate(-258.000000, -156.000000) ">
                <use fill="#000000" fill-rule="evenodd" xlink:href="#path-13"></use>
                <rect stroke="#000000" stroke-width="1" x="249.5" y="126.5" width="17" height="59" rx="8"></rect>
            </g>
        </g>
    </g>
</svg>