<?xml version="1.0" encoding="UTF-8" standalone="no"?>
<svg width="582px" height="352px" viewBox="0 0 582 352" version="1.1" xmlns="http://www.w3.org/2000/svg" xmlns:xlink="http://www.w3.org/1999/xlink">
    <!-- Generator: Sketch 44.1 (41455) - http://www.bohemiancoding.com/sketch -->
    <title>double-quote</title>
    <desc>Created with Sketch.</desc>
    <defs></defs>
    <g id="Page-1" stroke="none" stroke-width="1" fill="none" fill-rule="evenodd">
        <g id="double-quote" transform="translate(1.000000, 1.000000)" stroke="#000000" fill="#000000">
            <g id="single-quote">
                <path d="M273.884021,99.4951031 L274.031827,99.217122 C251.425686,25.2757674 173.158477,-16.3396459 99.217122,6.26649485 C25.2757674,28.8726356 -16.3396459,107.139845 6.26649485,181.081199 C28.8453226,254.933217 106.950799,296.53736 180.81317,274.113484 L180.703692,274.3205 C167.973048,292.443404 156.608992,305.23895 146.611524,312.707137 C136.614057,320.175325 114.034272,332.736098 78.8721692,350.389456 C163.005579,318.371354 219.793869,283.328085 249.237041,245.259649 C278.520538,207.397663 286.736198,158.809484 273.884023,99.495111 Z" id="Combined-Shape"></path>
            </g>
            <g id="single-quote" transform="translate(300.000000, 0.000000)">
                <path d="M273.884021,99.4951031 L274.031827,99.217122 C251.425686,25.2757674 173.158477,-16.3396459 99.217122,6.26649485 C25.2757674,28.8726356 -16.3396459,107.139845 6.26649485,181.081199 C28.8453226,254.933217 106.950799,296.53736 180.81317,274.113484 L180.703692,274.3205 C167.973048,292.443404 156.608992,305.23895 146.611524,312.707137 C136.614057,320.175325 114.034272,332.736098 78.8721692,350.389456 C163.005579,318.371354 219.793869,283.328085 249.237041,245.259649 C278.520538,207.397663 286.736198,158.809484 273.884023,99.495111 Z" id="Combined-Shape"></path>
            </g>
        </g>
    </g>
</svg>