<?xml version="1.0" encoding="UTF-8" standalone="no"?>
<svg width="427px" height="306px" viewBox="0 0 427 306" version="1.1" xmlns="http://www.w3.org/2000/svg" xmlns:xlink="http://www.w3.org/1999/xlink">
    <!-- Generator: Sketch 44.1 (41455) - http://www.bohemiancoding.com/sketch -->
    <title>list</title>
    <desc>Created with Sketch.</desc>
    <defs>
        <path d="M40,8.8823263e-16 L418,8.8823263e-16 L418,1.77635684e-15 C422.418278,9.64723093e-16 426,3.581722 426,8 L426,53 L426,53 C426,57.418278 422.418278,61 418,61 L40,61 L40,61 C35.581722,61 32,57.418278 32,53" id="path-1"></path>
        <path d="M40,8.8823263e-16 L418,8.8823263e-16 L418,1.77635684e-15 C422.418278,9.64723093e-16 426,3.581722 426,8 L426,53 L426,53 C426,57.418278 422.418278,61 418,61 L40,61 L40,61 C35.581722,61 32,57.418278 32,53" id="path-2"></path>
        <path d="M40,8.8823263e-16 L418,8.8823263e-16 L418,1.77635684e-15 C422.418278,9.64723093e-16 426,3.581722 426,8 L426,53 L426,53 C426,57.418278 422.418278,61 418,61 L40,61 L40,61 C35.581722,61 32,57.418278 32,53" id="path-3"></path>
        <path d="M40,8.8823263e-16 L418,8.8823263e-16 L418,1.77635684e-15 C422.418278,9.64723093e-16 426,3.581722 426,8 L426,53 L426,53 C426,57.418278 422.418278,61 418,61 L40,61 L40,61 C35.581722,61 32,57.418278 32,53" id="path-4"></path>
    </defs>
    <g id="Page-1" stroke="none" stroke-width="1" fill="none" fill-rule="evenodd">
        <g id="list" transform="translate(1.000000, 1.000000)">
            <g id="list-item">
                <path d="M31.5,61 C14.1030304,61 0,47.3446849 0,30.5 C0,13.6553151 14.1030304,0 31.5,0 C48.8969696,0 63,13.6553151 63,30.5 C63,47.3446849 48.8969696,61 31.5,61 Z M32,46 C40.2842712,46 47,39.2842712 47,31 C47,22.7157288 40.2842712,16 32,16 C23.7157288,16 17,22.7157288 17,31 C17,39.2842712 23.7157288,46 32,46 Z" id="Combined-Shape" stroke="#000000" fill="#000000"></path>
                <g id="Rectangle-6">
                    <use fill-opacity="0" fill="#D8D8D8" fill-rule="evenodd" xlink:href="#path-1"></use>
                    <path stroke="#000000" stroke-width="10" d="M44.301922,5 L37.0134608,53.2860554 C37.1574942,54.80873 38.4396291,56 40,56 L418,56 C419.656854,56 421,54.6568542 421,53 L421,8 C421,6.34314575 419.656854,5 418,5 L44.301922,5 Z"></path>
                </g>
            </g>
            <g id="list-item" transform="translate(0.000000, 81.000000)">
                <path d="M31.5,61 C14.1030304,61 0,47.3446849 0,30.5 C0,13.6553151 14.1030304,0 31.5,0 C48.8969696,0 63,13.6553151 63,30.5 C63,47.3446849 48.8969696,61 31.5,61 Z M32,46 C40.2842712,46 47,39.2842712 47,31 C47,22.7157288 40.2842712,16 32,16 C23.7157288,16 17,22.7157288 17,31 C17,39.2842712 23.7157288,46 32,46 Z" id="Combined-Shape" stroke="#000000" fill="#000000"></path>
                <g id="Rectangle-6">
                    <use fill-opacity="0" fill="#D8D8D8" fill-rule="evenodd" xlink:href="#path-2"></use>
                    <path stroke="#000000" stroke-width="10" d="M44.301922,5 L37.0134608,53.2860554 C37.1574942,54.80873 38.4396291,56 40,56 L418,56 C419.656854,56 421,54.6568542 421,53 L421,8 C421,6.34314575 419.656854,5 418,5 L44.301922,5 Z"></path>
                </g>
            </g>
            <g id="list-item" transform="translate(0.000000, 162.000000)">
                <path d="M31.5,61 C14.1030304,61 0,47.3446849 0,30.5 C0,13.6553151 14.1030304,0 31.5,0 C48.8969696,0 63,13.6553151 63,30.5 C63,47.3446849 48.8969696,61 31.5,61 Z M32,46 C40.2842712,46 47,39.2842712 47,31 C47,22.7157288 40.2842712,16 32,16 C23.7157288,16 17,22.7157288 17,31 C17,39.2842712 23.7157288,46 32,46 Z" id="Combined-Shape" stroke="#000000" fill="#000000"></path>
                <g id="Rectangle-6">
                    <use fill-opacity="0" fill="#D8D8D8" fill-rule="evenodd" xlink:href="#path-3"></use>
                    <path stroke="#000000" stroke-width="10" d="M44.301922,5 L37.0134608,53.2860554 C37.1574942,54.80873 38.4396291,56 40,56 L418,56 C419.656854,56 421,54.6568542 421,53 L421,8 C421,6.34314575 419.656854,5 418,5 L44.301922,5 Z"></path>
                </g>
            </g>
            <g id="list-item" transform="translate(0.000000, 243.000000)">
                <path d="M31.5,61 C14.1030304,61 0,47.3446849 0,30.5 C0,13.6553151 14.1030304,0 31.5,0 C48.8969696,0 63,13.6553151 63,30.5 C63,47.3446849 48.8969696,61 31.5,61 Z M32,46 C40.2842712,46 47,39.2842712 47,31 C47,22.7157288 40.2842712,16 32,16 C23.7157288,16 17,22.7157288 17,31 C17,39.2842712 23.7157288,46 32,46 Z" id="Combined-Shape" stroke="#000000" fill="#000000"></path>
                <g id="Rectangle-6">
                    <use fill-opacity="0" fill="#D8D8D8" fill-rule="evenodd" xlink:href="#path-4"></use>
                    <path stroke="#000000" stroke-width="10" d="M44.301922,5 L37.0134608,53.2860554 C37.1574942,54.80873 38.4396291,56 40,56 L418,56 C419.656854,56 421,54.6568542 421,53 L421,8 C421,6.34314575 419.656854,5 418,5 L44.301922,5 Z"></path>
                </g>
            </g>
        </g>
    </g>
</svg>