<?xml version="1.0" encoding="UTF-8" standalone="no"?>
<svg width="395px" height="395px" viewBox="0 0 395 395" version="1.1" xmlns="http://www.w3.org/2000/svg" xmlns:xlink="http://www.w3.org/1999/xlink">
    <!-- Generator: Sketch 44.1 (41455) - http://www.bohemiancoding.com/sketch -->
    <title>magnifying-glass</title>
    <desc>Created with Sketch.</desc>
    <defs></defs>
    <g id="Page-1" stroke="none" stroke-width="1" fill="none" fill-rule="evenodd">
        <g id="magnifying-glass" transform="translate(0.000000, 1.000000)" stroke="#000000" fill="#000000">
            <path d="M139.124117,280.263255 L28.6833774,390.703995 L28.6833774,390.703995 C25.5591831,393.82819 20.4938632,393.82819 17.3696689,390.703995 L3.1961528,376.530479 L3.1961528,376.530479 C0.0719584683,373.406285 0.0719584683,368.340965 3.1961528,365.216771 L3.1961528,365.216771 L113.519606,254.893318 C91.9999651,228.048097 79.1335312,194.005889 79.1335312,156.967456 C79.1335312,70.2767237 149.618791,0 236.566766,0 C323.51474,0 394,70.2767237 394,156.967456 C394,243.658188 323.51474,313.934911 236.566766,313.934911 C199.773387,313.934911 165.92797,301.350529 139.124117,280.263255 Z M236.566766,261.612426 C294.532082,261.612426 341.522255,214.761277 341.522255,156.967456 C341.522255,99.1736343 294.532082,52.3224852 236.566766,52.3224852 C178.601449,52.3224852 131.611276,99.1736343 131.611276,156.967456 C131.611276,214.761277 178.601449,261.612426 236.566766,261.612426 Z" id="Combined-Shape"></path>
        </g>
    </g>
</svg>